<?xml version="1.0" encoding="utf-8"?>
<!-- Generator: Adobe Illustrator 24.0.1, SVG Export Plug-In . SVG Version: 6.00 Build 0)  -->
<svg version="1.1" id="Layer_1" xmlns="http://www.w3.org/2000/svg" xmlns:xlink="http://www.w3.org/1999/xlink" x="0px" y="0px"
	 viewBox="0 0 16 16" style="enable-background:new 0 0 16 16;" xml:space="preserve">
<style type="text/css">
	.st0{fill:#D5EFFF;}
	.st1{fill:#00BCD4;}
</style>
<circle class="st0" cx="8" cy="8.1" r="7.9"/>
<g>
	<rect x="8.1" y="8.1" transform="matrix(0.8759 -0.4824 0.4824 0.8759 -3.4118 5.1843)" class="st1" width="0.6" height="2.3"/>
	<rect x="5.8" y="4" transform="matrix(0.8759 -0.4824 0.4824 0.8759 -1.7386 3.6117)" class="st1" width="0.6" height="2.3"/>
	<polygon class="st1" points="9.9,3.6 2.6,5.1 2.2,4.4 9.5,2.9 	"/>
	<polygon class="st1" points="9.5,2.9 4.4,8.3 4.7,9 9.9,3.6 	"/>
	<polygon class="st1" points="12.1,7.5 4.7,9 4.4,8.4 11.7,6.9 	"/>
	<polygon class="st1" points="11.7,6.9 6.5,12.3 6.9,13 12.1,7.6 	"/>
	<polygon class="st1" points="14.2,11.5 6.9,13 6.5,12.3 13.9,10.8 	"/>
	<rect x="2.1" y="3.8" transform="matrix(0.8759 -0.4824 0.4824 0.8759 -2.0066 1.7509)" class="st1" width="0.6" height="2"/>
	<rect x="4.2" y="7.7" transform="matrix(0.8759 -0.4824 0.4824 0.8759 -3.63 3.2797)" class="st1" width="0.6" height="2"/>
	<rect x="6.4" y="11.6" transform="matrix(0.8759 -0.4824 0.4824 0.8759 -5.2552 4.8047)" class="st1" width="0.6" height="2"/>
	<rect x="13.7" y="10.1" transform="matrix(0.8759 -0.4824 0.4824 0.8759 -3.6254 8.1474)" class="st1" width="0.6" height="2"/>
</g>
</svg>
