<svg id="Layer_1" data-name="Layer 1" xmlns="http://www.w3.org/2000/svg" viewBox="0 0 628.53 187.66"><defs><style>.cls-1{font-size:25px;font-family:Times-Italic, Times;font-style:italic;}.cls-1,.cls-7{fill:#666;}.cls-1,.cls-5{letter-spacing:-0.01em;}.cls-2{letter-spacing:0.01em;}.cls-3{letter-spacing:-0.03em;}.cls-4{letter-spacing:-0.03em;}.cls-6{letter-spacing:-0.04em;}.cls-7{font-size:100px;font-family:Helvetica;letter-spacing:0.01em;}.cls-8{fill:#d5efff;}.cls-9{fill:#00bcd4;}</style></defs><title>ezaai_banner</title><text class="cls-1" transform="translate(194.83 127.25) scale(0.85 0.9)">A<tspan class="cls-2" x="15.08" y="0" xml:space="preserve"> Pipeline for High Th</tspan><tspan class="cls-3" x="234.21" y="0">r</tspan><tspan class="cls-2" x="243.27" y="0">oughput Calculation of </tspan><tspan class="cls-2"><tspan x="0" y="33.33">P</tspan><tspan class="cls-4" x="15.52" y="33.33">r</tspan><tspan x="24.58" y="33.33">okaryotic</tspan><tspan class="cls-5" x="121.24" y="33.33"> </tspan><tspan class="cls-6" x="127.3" y="33.33">A</tspan><tspan x="141.46" y="33.33">verage</tspan><tspan class="cls-5" x="210.98" y="33.33"> </tspan><tspan x="217.04" y="33.33">Amino</tspan><tspan class="cls-5" x="283.56" y="33.33"> </tspan><tspan x="289.62" y="33.33">Acid Identity</tspan></tspan></text><text class="cls-7" transform="translate(190.48 92.98) scale(0.86 0.9)">EzAAI</text><circle class="cls-8" cx="93.49" cy="95.93" r="78.45"/><rect class="cls-9" x="94.05" y="95.84" width="6.28" height="22.77" transform="translate(-39.67 60.19) rotate(-28.85)"/><rect class="cls-9" x="72.04" y="55.8" width="6.28" height="22.77" transform="translate(-23.08 44.61) rotate(-28.85)"/><polygon class="cls-9" points="112.42 51.61 39.82 66.47 36.16 59.78 108.76 44.92 112.42 51.61"/><polygon class="cls-9" points="108.72 45.01 57.48 98.54 61.19 105.2 112.43 51.66 108.72 45.01"/><polygon class="cls-9" points="133.77 90.48 61.17 105.35 57.52 98.66 130.11 83.8 133.77 90.48"/><polygon class="cls-9" points="130.1 83.97 78.86 137.5 82.57 144.16 133.81 90.63 130.1 83.97"/><polygon class="cls-9" points="155.16 129.35 82.56 144.22 78.9 137.53 151.5 122.67 155.16 129.35"/><rect class="cls-9" x="34.85" y="53.22" width="6.28" height="19.81" transform="translate(-25.74 26.16) rotate(-28.85)"/><rect class="cls-9" x="56.26" y="92.09" width="6.28" height="19.81" transform="translate(-41.84 41.31) rotate(-28.85)"/><rect class="cls-9" x="77.6" y="130.97" width="6.28" height="19.81" transform="translate(-57.95 56.43) rotate(-28.85)"/><rect class="cls-9" x="150.1" y="116.12" width="6.28" height="19.81" transform="translate(-41.79 89.57) rotate(-28.85)"/></svg>