<?xml version="1.0" encoding="utf-8"?>
<!-- Generator: Adobe Illustrator 24.0.1, SVG Export Plug-In . SVG Version: 6.00 Build 0)  -->
<svg version="1.1" id="Layer_1" xmlns="http://www.w3.org/2000/svg" xmlns:xlink="http://www.w3.org/1999/xlink" x="0px" y="0px"
	 viewBox="0 0 160 160" style="enable-background:new 0 0 160 160;" xml:space="preserve">
<style type="text/css">
	.st0{fill:#D5EFFF;}
	.st1{fill:#00BCD4;}
</style>
<circle class="st0" cx="80" cy="80" r="79.2"/>
<g>
	<rect x="80.6" y="79.9" transform="matrix(0.8759 -0.4824 0.4824 0.8759 -33.7108 51.7406)" class="st1" width="6.3" height="23"/>
	<rect x="58.3" y="39.5" transform="matrix(0.8759 -0.4824 0.4824 0.8759 -16.9563 35.9934)" class="st1" width="6.3" height="23"/>
	<polygon class="st1" points="99.1,35.2 25.8,50.2 22.1,43.5 95.4,28.5 	"/>
	<polygon class="st1" points="95.4,28.6 43.6,82.6 47.4,89.4 99.1,35.3 	"/>
	<polygon class="st1" points="120.7,74.5 47.4,89.5 43.7,82.8 117,67.7 	"/>
	<polygon class="st1" points="117,67.9 65.2,122 69,128.7 120.7,74.6 	"/>
	<polygon class="st1" points="142.3,113.8 69,128.8 65.3,122 138.6,107 	"/>
	<rect x="20.8" y="36.9" transform="matrix(0.8759 -0.4824 0.4824 0.8759 -19.6401 17.3606)" class="st1" width="6.3" height="20"/>
	<rect x="42.4" y="76.1" transform="matrix(0.8759 -0.4824 0.4824 0.8759 -35.8961 32.6691)" class="st1" width="6.3" height="20"/>
	
		<rect x="63.9" y="115.4" transform="matrix(0.8759 -0.4824 0.4824 0.8759 -52.1696 47.9393)" class="st1" width="6.3" height="20"/>
	
		<rect x="137.2" y="100.4" transform="matrix(0.8759 -0.4824 0.4824 0.8759 -35.8493 81.4113)" class="st1" width="6.3" height="20"/>
</g>
</svg>
