<?xml version="1.0" encoding="utf-8"?>
<!-- Generator: Adobe Illustrator 24.0.1, SVG Export Plug-In . SVG Version: 6.00 Build 0)  -->
<svg version="1.1" id="Layer_1" xmlns="http://www.w3.org/2000/svg" xmlns:xlink="http://www.w3.org/1999/xlink" x="0px" y="0px"
	 viewBox="0 0 560 560" style="enable-background:new 0 0 560 560;" xml:space="preserve">
<style type="text/css">
	.st0{fill:#D5EFFF;}
	.st1{fill:#00BCD4;}
</style>
<circle class="st0" cx="280" cy="280" r="250.2"/>
<g>
	
		<rect x="281.8" y="279.7" transform="matrix(0.8759 -0.4824 0.4824 0.8759 -116.2567 179.987)" class="st1" width="20" height="72.6"/>
	
		<rect x="211.6" y="152" transform="matrix(0.8759 -0.4824 0.4824 0.8759 -63.3693 130.2791)" class="st1" width="20" height="72.6"/>
	<polygon class="st1" points="340.3,138.7 108.8,186.1 97.2,164.7 328.7,117.4 	"/>
	<polygon class="st1" points="328.6,117.6 165.2,288.3 177,309.6 340.4,138.9 	"/>
	<polygon class="st1" points="408.4,262.6 177,310 165.3,288.7 396.8,241.3 	"/>
	<polygon class="st1" points="396.7,241.9 233.4,412.6 245.2,433.8 408.6,263.1 	"/>
	<polygon class="st1" points="476.6,386.6 245.1,434 233.5,412.6 465,365.3 	"/>
	<rect x="93" y="143.8" transform="matrix(0.8759 -0.4824 0.4824 0.8759 -71.841 71.4625)" class="st1" width="20" height="63.2"/>
	
		<rect x="161.3" y="267.7" transform="matrix(0.8759 -0.4824 0.4824 0.8759 -123.1548 119.7854)" class="st1" width="20" height="63.2"/>
	
		<rect x="229.3" y="391.7" transform="matrix(0.8759 -0.4824 0.4824 0.8759 -174.5239 167.9877)" class="st1" width="20" height="63.2"/>
	
		<rect x="460.5" y="344.4" transform="matrix(0.8759 -0.4824 0.4824 0.8759 -123.0073 273.6458)" class="st1" width="20" height="63.2"/>
</g>
</svg>
